# xmcd
#
# Track frame offsets: 
#        150
#        20572
#        40083
#        62057
#        81201
#        103094
#        126407
#        150464
#        168756
#        196766
#        213113
#        232687
#
# Disc length: 3396 seconds
#
# Revision: 1
# Processed by: cddbd v1.5.2PL0 Copyright (c) Steve Scherf et al.
# Submitted via: ExactAudioCopyFreeDBPlugin 1.0
#
DISCID=8d0d420c
DTITLE=Savoy Brown - City Night
DYEAR=2019
DGENRE=Blues
TTITLE0=Walking On Hot Stones
TTITLE1=Don't Hang Me Out To Dry
TTITLE2=Payback Time
TTITLE3=Red Light Mama
TTITLE4=Conjure Rhythm
TTITLE5=Neighborhood Blues
TTITLE6=Selfish World
TTITLE7=Wearing Thin
TTITLE8=City Night
TTITLE9=Hang In Tough
TTITLE10=Superstitious Woman
TTITLE11=Ain't Gonna Worry
EXTD=
EXTT0=
EXTT1=
EXTT2=
EXTT3=
EXTT4=
EXTT5=
EXTT6=
EXTT7=
EXTT8=
EXTT9=
EXTT10=
EXTT11=
PLAYORDER=
